<?xml version="1.0" encoding="UTF-8" standalone="no"?>
<!-- Created with Inkscape (http://www.inkscape.org/) -->

<svg
   width="107.26058mm"
   height="107.3191mm"
   viewBox="0 0 107.26058 107.3191"
   version="1.1"
   id="svg1"
   inkscape:export-batch-path="C:\Users\Victor\Mi unidad\VIVE-X"
   inkscape:export-batch-name="Icono"
   inkscape:version="1.4 (86a8ad7, 2024-10-11)"
   sodipodi:docname="logo.svg"
   xmlns:inkscape="http://www.inkscape.org/namespaces/inkscape"
   xmlns:sodipodi="http://sodipodi.sourceforge.net/DTD/sodipodi-0.dtd"
   xmlns="http://www.w3.org/2000/svg"
   xmlns:svg="http://www.w3.org/2000/svg">
  <sodipodi:namedview
     id="namedview1"
     pagecolor="#ffffff"
     bordercolor="#000000"
     borderopacity="0.25"
     inkscape:showpageshadow="2"
     inkscape:pageopacity="0.0"
     inkscape:pagecheckerboard="0"
     inkscape:deskcolor="#d1d1d1"
     inkscape:document-units="mm"
     inkscape:zoom="0.41577381"
     inkscape:cx="395.64782"
     inkscape:cy="561.60344"
     inkscape:window-width="1707"
     inkscape:window-height="897"
     inkscape:window-x="1912"
     inkscape:window-y="-8"
     inkscape:window-maximized="1"
     inkscape:current-layer="layer1">
    <inkscape:page
       x="0"
       y="-2.9127194e-13"
       width="107.26058"
       height="107.31911"
       id="page2"
       margin="0"
       bleed="0" />
  </sodipodi:namedview>
  <defs
     id="defs1" />
  <g
     inkscape:label="Capa 1"
     inkscape:groupmode="layer"
     id="layer1"
     transform="translate(-51.489414,-94.87842)">
    <path
       d="m 101.86458,202.09842 c -3.921683,-0.20814 -8.814183,-1.15457 -12.984109,-2.51172 -3.565417,-1.1604 -10.227381,-4.42046 -11.821295,-5.78479 -1.043816,-0.89347 -1.123762,-1.05599 -1.123762,-2.28455 0,-1.10131 0.126167,-1.44882 0.753941,-2.07659 0.414665,-0.41467 1.1792,-0.83372 1.698963,-0.93123 0.840955,-0.15776 1.235343,0.001 3.581353,1.4428 11.010886,6.76643 25.776209,8.22624 38.523739,3.80873 13.5739,-4.70388 24.25531,-14.95883 29.10266,-27.94078 2.21772,-5.93937 3.08211,-10.76078 3.0905,-17.2385 0.0106,-8.21891 -1.97567,-16.13677 -5.85788,-23.35055 -1.39009,-2.58304 -1.54427,-3.35659 -0.91249,-4.57832 0.56935,-1.10103 1.41015,-1.59042 2.73235,-1.59042 1.59004,0 2.24573,0.76682 4.48297,5.24288 3.88749,7.77767 5.61848,15.25133 5.61848,24.25816 0,8.75561 -1.66275,16.18239 -5.27209,23.54792 -6.9732,14.2302 -19.99721,24.72061 -35.45306,28.55627 -5.29417,1.31385 -10.19196,1.74746 -16.16027,1.43069 z M 67.462506,189.04175 c -1.364369,-0.42738 -2.814841,-1.71496 -3.340148,-2.96502 -0.486349,-1.15736 -0.450749,-3.35691 0.071,-4.38727 0.982366,-1.93997 2.143659,-2.63368 4.730594,-2.82584 l 1.852083,-0.13758 3.774821,-5.02708 c 5.17711,-6.89457 15.86829,-21.01069 17.690065,-23.3571 l 1.495243,-1.92585 -0.632148,-0.86889 c -0.347681,-0.47789 -4.809188,-6.51688 -9.914459,-13.41998 -5.105273,-6.90311 -9.494512,-12.87852 -9.753867,-13.2787 l -0.471556,-0.72761 10.547617,8e-4 10.547617,7.9e-4 5.291667,7.00893 c 2.910425,3.85491 5.366545,7.0097 5.458055,7.01064 0.0915,0.001 2.33224,-2.81114 4.9794,-6.24904 l 4.81302,-6.25075 -0.30664,-1.2782 c -0.58854,-2.45331 0.48524,-4.80299 2.69907,-5.90619 3.05583,-1.52278 6.24916,-0.21885 7.32368,2.99047 0.40646,1.21394 0.37894,2.12085 -0.10601,3.49537 -0.78962,2.23798 -2.86855,3.56095 -5.29274,3.36815 l -1.24228,-0.0988 -4.52427,5.95754 c -2.48834,3.27664 -5.35067,7.05886 -6.36071,8.40493 -1.01005,1.34607 -1.92811,2.4474 -2.04014,2.4474 -0.31466,0 -3.9109,-4.57386 -8.575472,-10.90668 l -4.233297,-5.74725 -5.22552,-0.007 c -2.874037,-0.004 -5.225521,0.0466 -5.225521,0.11261 0,0.13309 7.742256,10.67082 11.460239,15.59816 3.722042,4.93272 5.737677,7.85992 5.737677,8.33252 0,0.23885 -1.211868,1.97962 -2.693043,3.86836 -1.481171,1.88875 -5.386956,7.00596 -8.679515,11.37159 -3.292563,4.36562 -7.68205,10.14016 -9.754418,12.83229 -2.896481,3.76271 -3.728958,5.01718 -3.599384,5.42396 0.09271,0.29104 0.226566,1.18401 0.297463,1.98437 0.105479,1.19076 0.0132,1.67158 -0.507785,2.64584 -1.164744,2.17809 -3.885343,3.26388 -6.290392,2.5105 z m 2.982804,-3.87401 c 1.405771,-1.66134 -0.813419,-3.94732 -2.524993,-2.60099 -0.524227,0.41235 -0.716153,0.80121 -0.716153,1.45096 0,1.77271 2.087502,2.5134 3.241146,1.15003 z M 120.65,120.38542 c 0.66438,-0.66439 0.70043,-2.14489 0.0661,-2.71651 -0.88979,-0.80187 -1.82732,-0.83803 -2.56637,-0.099 -0.83294,0.83295 -0.87215,1.90983 -0.0995,2.7323 0.71345,0.75943 1.88596,0.79695 2.59972,0.0832 z m -32.014586,61.88055 c -0.363802,-0.14464 -0.999784,-0.58358 -1.413293,-0.97541 -2.55066,-2.41699 -2.275467,-6.36251 0.584263,-8.37675 0.946372,-0.66658 1.382842,-0.79082 2.890105,-0.82269 l 1.775383,-0.0375 6.270321,-8.16863 c 3.448677,-4.49275 6.368427,-8.20134 6.488327,-8.24131 0.11991,-0.04 3.12162,3.79777 6.67047,8.5283 l 6.45245,8.60097 h 5.24932 c 2.88712,0 5.24932,-0.077 5.24932,-0.17122 0,-0.0942 -3.66869,-5.06503 -8.15266,-11.04635 -9.42364,-12.57054 -9.33119,-12.44181 -9.37763,-13.05828 -0.0292,-0.38807 8.57711,-12.03371 11.97609,-16.20539 3.69156,-4.53077 12.79553,-16.60906 12.76346,-16.93334 -0.0217,-0.21828 -0.18584,-1.0127 -0.36502,-1.76538 -0.40881,-1.71745 -0.0462,-3.11411 1.16721,-4.49613 1.07019,-1.21888 2.16908,-1.67599 4.02913,-1.67599 3.14124,0 5.42224,2.28359 5.41787,5.42396 0,0.43656 -0.28858,1.41116 -0.63992,2.16578 -0.8659,1.85973 -2.24965,2.7696 -4.52258,2.97379 l -1.69317,0.1521 -8.24013,10.71562 c -4.53207,5.8936 -9.68591,12.59127 -11.45296,14.88373 -1.76705,2.29245 -3.24659,4.32176 -3.28787,4.50958 -0.0413,0.18781 2.38957,3.61045 5.4019,7.60586 7.45899,9.89327 15.19987,20.37404 15.36429,20.80245 0.11128,0.29005 -1.73721,0.35255 -10.42662,0.35255 H 116.2516 l -0.54943,-0.72761 c -6.22992,-8.25026 -10.39563,-13.58434 -10.57243,-13.53767 -0.12235,0.0323 -2.32098,2.74917 -4.88586,6.03752 -4.080073,5.23093 -4.634431,6.05542 -4.43177,6.59134 0.318373,0.8419 0.290999,3.03202 -0.04917,3.9343 -0.380865,1.01021 -1.781958,2.44782 -2.819546,2.89304 -0.976066,0.41882 -3.332935,0.45646 -4.307977,0.0688 z m 3.505729,-3.61223 c 0.72122,-0.63332 0.599424,-2.03096 -0.234119,-2.68662 -0.383427,-0.30161 -0.90315,-0.54837 -1.154944,-0.54837 -0.760446,0 -1.852083,1.03523 -1.852083,1.75639 0,1.89284 1.822556,2.72429 3.241146,1.4786 z m 50.177487,-64.72167 c 1.23261,-1.31206 0.0164,-3.65655 -1.67629,-3.23168 -1.68368,0.42257 -2.23825,2.06319 -1.08667,3.21476 0.84203,0.84204 1.98125,0.84902 2.76296,0.0169 z M 59.582143,176.6116 c -1.55022,-1.30443 -5.244947,-9.60452 -6.527311,-14.66341 -1.247058,-4.91962 -1.554929,-7.50018 -1.56528,-13.12007 -0.01696,-9.20362 1.560298,-16.22348 5.419294,-24.1197 6.765909,-13.8443 18.933474,-23.94307 33.74332,-28.006091 5.541904,-1.520399 8.237378,-1.852594 14.784294,-1.822035 6.40416,0.02989 9.47276,0.431877 14.55208,1.906323 4.49564,1.305015 10.03075,3.779513 12.52191,5.597993 2.11264,1.54217 2.33196,3.64949 0.537,5.15985 -1.10858,0.93282 -2.15758,0.86051 -4.04742,-0.27903 -12.98778,-7.831405 -28.9461,-8.778196 -43.125226,-2.55858 -12.47485,5.47204 -21.685421,15.64536 -26.052295,28.77544 -1.679745,5.05057 -2.162879,7.79928 -2.32976,13.2548 -0.174535,5.7057 0.115846,8.57084 1.357969,13.39883 1.009647,3.92438 2.625344,7.98346 4.473535,11.23875 0.678744,1.1955 1.234078,2.48134 1.234078,2.85741 0,2.48298 -3.094612,3.96276 -4.976188,2.37952 z m 32.31525,-10.84538 c -1.612032,-0.6889 -1.922939,-2.57513 -0.636498,-3.86157 0.425368,-0.42537 0.955501,-0.7734 1.178073,-0.7734 0.222573,0 1.651064,-1.63711 3.174426,-3.63802 1.523363,-2.00091 6.347416,-8.22193 10.720116,-13.82448 5.72579,-7.33619 7.95263,-10.38007 7.95843,-10.87838 0.011,-0.94383 0.88883,-1.98657 1.97388,-2.34467 2.62748,-0.86714 4.40207,2.28592 2.32121,4.12429 -2.07414,1.83243 -2.89914,2.79442 -6.66828,7.77554 -2.25558,2.98086 -6.80403,8.89356 -10.10768,13.13932 -3.303645,4.24576 -6.174477,8.11631 -6.379627,8.60121 -0.701323,1.65771 -2.067131,2.30704 -3.53405,1.68016 z"
       style="fill:#3b82f6;stroke-width:0.264583"
       id="path1" />
  </g>
</svg>
